<?xml version="1.0" encoding="UTF-8"?>
<svg version="1.1" xmlns="http://www.w3.org/2000/svg" width="192" height="192">
<path d="M0 0 C16.73702879 13.5612312 28.47303995 31.05573035 34 52 C34.33644531 53.2684375 34.33644531 53.2684375 34.6796875 54.5625 C40.04553588 79.84814167 35.1532677 107.6205921 21.18164062 129.27539062 C6.51797619 150.67706946 -15.40731634 166.06604296 -41 171 C-66.48520312 175.54979282 -93.56944053 170.68345241 -115 156 C-125.8877189 147.98457673 -135.40277318 138.19473717 -143 127 C-143.41765625 126.38511719 -143.8353125 125.77023438 -144.265625 125.13671875 C-156.5183104 105.16794349 -158.98570317 78.51936946 -154.8125 55.875 C-148.42102047 29.33260582 -133.61884601 7.80693783 -110.44726562 -6.82592773 C-75.9716754 -27.75290725 -31.51979287 -24.86517162 0 0 Z " fill="#4E46E6" transform="translate(156,20)"/>
<path d="M0 0 C36.3 0 72.6 0 110 0 C122 29 122 29 122 32 C91.31 32 60.62 32 29 32 C27.68 37.28 26.36 42.56 25 48 C24.23462082 50.7871245 23.4535826 53.57012995 22.640625 56.34375 C22.44652039 57.00918823 22.25241577 57.67462646 22.0524292 58.36022949 C21.45450547 60.40767811 20.8523801 62.4538587 20.25 64.5 C19.83435004 65.92048944 19.41898448 67.34106214 19.00390625 68.76171875 C18.00585738 72.17543831 17.00404725 75.58803917 16 79 C23.08495053 77.59818726 30.16900328 76.19190566 37.25244141 74.7824707 C39.66369372 74.30324284 42.07515185 73.82504938 44.48681641 73.34790039 C47.9474832 72.6630212 51.40739973 71.97446039 54.8671875 71.28515625 C55.95055389 71.07157974 57.03392029 70.85800323 58.15011597 70.63795471 C59.1510025 70.43782272 60.15188904 70.23769073 61.18310547 70.03149414 C62.50881058 69.76835167 62.50881058 69.76835167 63.86129761 69.49989319 C66.03548466 69.07888377 66.03548466 69.07888377 68 68 C62.39 67.34 56.78 66.68 51 66 C51 61.38 51 56.76 51 52 C72.12 52 93.24 52 115 52 C113.70732842 57.81702211 112.37834467 63.3316371 110.53125 68.953125 C110.29452576 69.68402847 110.05780151 70.41493195 109.81390381 71.16798401 C109.04711111 73.53015142 108.27387596 75.8901446 107.5 78.25 C106.9657512 79.88889349 106.43157227 81.52780975 105.89746094 83.16674805 C101.10324774 97.8373535 96.10677201 112.43541767 91 127 C83.98382854 122.62646522 77.1653335 118.07807432 70.5 113.1875 C68.9482225 112.05557019 67.39615174 110.92404228 65.84375 109.79296875 C65.17537109 109.3033667 64.50699219 108.81376465 63.81835938 108.30932617 C59.37522077 105.11000389 56.38301229 104.66971312 51.0402832 104.58935547 C50.23029877 104.56955627 49.42031433 104.54975708 48.58578491 104.52935791 C45.90756942 104.46616593 43.22928296 104.41662952 40.55078125 104.3671875 C38.69416964 104.32604504 36.8375767 104.28405199 34.98100281 104.24124146 C30.09360873 104.13083447 25.20604607 104.03200126 20.31835938 103.93554688 C15.33122752 103.83509133 10.34434059 103.7237326 5.35742188 103.61328125 C-4.42817621 103.39816048 -14.21398692 103.19526144 -24 103 C-23.52673426 98.2351391 -23.05538428 93.56815957 -21.8359375 88.92578125 C-21.60487305 88.02794922 -21.37380859 87.13011719 -21.13574219 86.20507812 C-20.88469727 85.25052734 -20.63365234 84.29597656 -20.375 83.3125 C-18.04457381 74.23313703 -15.85090759 65.13546312 -13.75 56 C-9.36390759 37.28600571 -4.66180594 18.64722377 0 0 Z " fill="#FCFCFE" transform="translate(46,37)"/>
</svg>
